<svg xmlns="http://www.w3.org/2000/svg" viewBox="0 0 400 400" width="32" height="32">
  <circle cx="200" cy="200" r="195" fill="#1B3A2D" stroke="#FFFFFF" stroke-width="10"/>
  <path d="M79 88 L79 308 L101 308 L101 200 L148 200 L200 308 L226 308 L172 197 C202 190 218 168 218 144 C218 114 198 88 164 88 Z M101 110 L161 110 C186 110 196 124 196 144 C196 164 186 178 161 178 L101 178 Z" fill="#E8DCC8" fill-rule="evenodd"/>
  <path d="M232 88 L232 308 L254 308 L254 200 L321 200 L321 182 L254 182 L254 110 L321 110 L321 88 Z" fill="#C45D3E"/>
</svg>
